# xmcd
#
# Track frame offsets:
#	182
#	15387
#	35070
#	47527
#	58225
#	71377
#	85760
#	104387
#	122285
#	134257
#	144460
#	166277
#	177275
#	201602
#	213745
#	230192
#
# Disc length: 3255 seconds
#
# Revision: 1
# Processed by: cddbd v1.5.1PL2 Copyright (c) Steve Scherf et al.
# Submitted via: audiograbber 1.83.01
#
DISCID=e80cb510
DTITLE=Various Artist - 25 Years of Strictly Country Magazine
DYEAR=1900
DGENRE=
TTITLE0=Jones, Chris - Dark side of the moon
TTITLE1=Kallick, Kathy - My Clinch Mountain home
TTITLE2=Kahn, Si - Milly in the mill
TTITLE3=High Country - Send me your address from Heaven
TTITLE4=Mutsers, Cor and Patrick van Gerven - Sofa
TTITLE5=Olney, David - Pour clothing
TTITLE6=Traver Hollow - Teardrops are falling in the snow
TTITLE7=Tashian, Barry and Holly - Blues for Dixie
TTITLE8=Whetstone Run - Talin' about that old time religion
TTITLE9=New Lowland - It's just like heaven
TTITLE10=Big Dogs - High Sierras
TTITLE11=Spruce Pine - Looking through the windows of Heaven
TTITLE12=AG and Kate - come let us join our friends above
TTITLE13=McCoury, Del - A good man like me
TTITLE14=Huber, Steve - Wait until tomorrow
TTITLE15=MacKenzie, Kate - Said I wasn't gonna tell nobody
EXTD=
EXTT0=
EXTT1=
EXTT2=\n
EXTT3=
EXTT4=
EXTT5=
EXTT6=
EXTT7=
EXTT8=
EXTT9=
EXTT10=
EXTT11=
EXTT12=
EXTT13=
EXTT14=
EXTT15=
PLAYORDER=
